<svg xmlns="http://www.w3.org/2000/svg" viewBox="0 0 448.73 126">
    <title>Asset 2</title>
    <g id="Layer_2" data-name="Layer 2">
        <g id="Layer_1-2" data-name="Layer 1">
            <path
                d="M26.15,59.52V78.47H18.08V97H0V56.09a26.84,26.84,0,0,1,2.37-11.8,24.72,24.72,0,0,1,9.11-10.17,23.16,23.16,0,0,1,12.74-3.94l1.93.05v19c-.42,0-.72,0-.92,0a6.46,6.46,0,0,0-5.29,2.27,10,10,0,0,0-1.86,6.48v1.64Z" />
            <path
                d="M60.86,79V97.66a23.68,23.68,0,0,1-4.06.39,24.79,24.79,0,0,1-18.13-7.16A24.16,24.16,0,0,1,31.42,73,25,25,0,0,1,56.56,47.87q11.7,0,18.44,6.84t6.74,18.68V97H63.66V74.7a9.3,9.3,0,0,0-1.86-6.09,6.11,6.11,0,0,0-5-2.27,7.11,7.11,0,0,0-5.12,11.94,6.38,6.38,0,0,0,4.78,1.93A8.18,8.18,0,0,0,60.86,79Z" />
            <path
                d="M118.72,48.35V67.69a7.07,7.07,0,0,0-3.43-1.06q-4.94,0-4.93,7.54V97H92.28V70.69Q92.28,60.25,98,54t15.23-6.21A37.52,37.52,0,0,1,118.72,48.35Z" />
            <path
                d="M142.12,48.84V97H124V48.84Zm-9-21.51a8.83,8.83,0,0,1,6.35,2.58,8.54,8.54,0,0,1,.15,12.3,9.94,9.94,0,0,1-13,0A8.13,8.13,0,0,1,124.09,36a8.23,8.23,0,0,1,2.68-6.12A8.87,8.87,0,0,1,133.13,27.33Z" />
            <path
                d="M169.77,31.05V70.54q0,9.63,6.91,9.62a6.94,6.94,0,0,0,5-2,6.58,6.58,0,0,0,2.05-4.86,6.91,6.91,0,0,0-1.93-5,6.35,6.35,0,0,0-4.74-2,8.44,8.44,0,0,0-4.55,1.74V48.16c2.13-.19,3.74-.29,4.84-.29a23.7,23.7,0,0,1,17.47,7.35,24.23,24.23,0,0,1,7.28,17.69,24,24,0,0,1-7.4,17.84A25.79,25.79,0,0,1,166,95.63a23.72,23.72,0,0,1-8.49-6.38q-5.81-7-5.8-18V31.05Z" />
            <path
                d="M232.9,47.82a23.9,23.9,0,0,1,17.57,7.37,25,25,0,0,1-.09,35.46,25.51,25.51,0,0,1-35.85,0,24.12,24.12,0,0,1-7.44-17.77,23.85,23.85,0,0,1,7.44-17.81A25.35,25.35,0,0,1,232.9,47.82Zm-.48,17.84a6.59,6.59,0,0,0-4.93,2.1,7.5,7.5,0,0,0,0,10.28,6.79,6.79,0,0,0,9.86,0,7.48,7.48,0,0,0,0-10.28A6.68,6.68,0,0,0,232.42,65.66Z" />
            <path
                d="M291.78,48.35V67.69a7.1,7.1,0,0,0-3.43-1.06q-4.94,0-4.93,7.54V97H265.34V70.69q0-10.44,5.7-16.66t15.23-6.21A37.64,37.64,0,0,1,291.78,48.35Z" />
            <path
                d="M423.05,0H334.41a25.68,25.68,0,0,0-25.68,25.68v74.64A25.68,25.68,0,0,0,334.41,126h88.64a25.68,25.68,0,0,0,25.68-25.68V25.68A25.68,25.68,0,0,0,423.05,0Zm-50,76.9V93.36H329.8L347.52,52.5H328.79V36h44.47L355.46,76.9Zm55.48,0V93.36H385.28L403,52.5H384.27V36h44.47L410.94,76.9Z" />
        </g>
    </g>
</svg>